<svg xmlns="http://www.w3.org/2000/svg" aria-labelledby="title desc" viewBox="0 0 960 480"><title>Images to PDF conversion</title><desc>A stack of PNG and JPG image documents converts into one red PDF document.</desc><path fill="#fff" stroke="#0f9f6e" stroke-linejoin="round" stroke-width="11" d="m60.602 102.234 174.334-15.252 65.001 54.542 19.174 219.163q1.744 19.924-18.18 21.667L86.749 401.092q-19.924 1.744-21.667-18.18L42.422 123.9q-1.744-19.924 18.18-21.667Z"/><path fill="none" stroke="#0f9f6e" stroke-width="11" d="m234.936 86.982 5.23 59.771 59.771-5.229"/><path fill="#0f9f6e" d="m44.862 151.794 141.46-12.376 5.926 67.742-141.46 12.376z"/><text x="71" y="94" fill="#fff" font-family="Arial, Helvetica, sans-serif" font-size="42" font-weight="700" letter-spacing="0" text-anchor="middle" transform="rotate(-5 1211.073 -413.854)">PNG</text><g transform="rotate(4 -733.86 1705.403)"><path fill="#fff" stroke="#7c3aed" stroke-linejoin="round" stroke-width="11" d="M20 0h175l60 60v220q0 20-20 20H20q-20 0-20-20V20Q0 0 20 0Z"/><path fill="none" stroke="#7c3aed" stroke-width="11" d="M195 0v60h60"/><path fill="#7c3aed" d="M0 48h142v68H0z"/><text x="71" y="94" fill="#fff" font-family="Arial, Helvetica, sans-serif" font-size="42" font-weight="700" letter-spacing="0" text-anchor="middle">JPG</text><path fill="none" stroke="#7c3aed" stroke-width="9" d="M45 145h165v100H45z"/><circle cx="82" cy="175" r="13" fill="#7c3aed"/><path fill="#7c3aed" d="m58 232 50-48 39 36 36-39 19 51Z"/></g><g fill="none" stroke="#2457ff" stroke-linecap="round" stroke-width="12"><path d="M425 240h105"/><path stroke-linejoin="round" d="m515 205 40 35-40 35"/></g><g transform="translate(570 55)"><path fill="#fff" stroke="#e30613" stroke-linejoin="round" stroke-width="14" d="M30 0h215l75 75v265q0 30-30 30H30q-30 0-30-30V30Q0 0 30 0Z"/><path fill="none" stroke="#e30613" stroke-linejoin="round" stroke-width="14" d="M245 0v75h75"/><rect width="205" height="88" y="70" fill="#e30613" rx="4"/><text x="102.5" y="129" fill="#fff" font-family="Arial, Helvetica, sans-serif" font-size="60" font-weight="700" letter-spacing="0" text-anchor="middle">PDF</text><path stroke="#e30613" stroke-width="11" d="M62 214h182M62 258h162M62 302h134"/></g></svg>