<svg xmlns="http://www.w3.org/2000/svg" aria-labelledby="title desc" viewBox="0 0 720 420"><title>Select and upload a PDF</title><desc>A red PDF document moves through a minimal blue arrow into a browser drop zone for local processing.</desc><g transform="translate(42 92)"><path fill="#fff" stroke="#e30613" stroke-linejoin="round" stroke-width="10" d="M20 0h130l46 46v180q0 20-20 20H20q-20 0-20-20V20Q0 0 20 0Z"/><path fill="none" stroke="#e30613" stroke-linejoin="round" stroke-width="10" d="M150 0v46h46"/><rect width="112" height="48" y="50" fill="#e30613" rx="3"/><text x="56" y="83" fill="#fff" font-family="Arial, Helvetica, sans-serif" font-size="26" font-weight="700" text-anchor="middle">PDF</text><path stroke="#e30613" stroke-width="7" d="M32 134h126M32 168h110M32 202h84"/></g><path fill="none" stroke="#2457ff" stroke-linecap="round" stroke-linejoin="round" stroke-width="10" d="M272 210h72m-22-22 26 22-26 22"/><g transform="translate(382 54)"><rect width="292" height="312" fill="#fff" stroke="#0e5aaf" stroke-width="10" rx="18"/><path stroke="#0e5aaf" stroke-width="10" d="M0 58h292"/><circle cx="30" cy="29" r="7" fill="#0e5aaf"/><circle cx="56" cy="29" r="7" fill="#0e5aaf" opacity=".65"/><circle cx="82" cy="29" r="7" fill="#0e5aaf" opacity=".35"/><rect width="208" height="168" x="42" y="94" fill="#fff" stroke="#2457ff" stroke-dasharray="16 13" stroke-width="8" rx="14"/><path stroke="#2457ff" stroke-linecap="round" stroke-width="10" d="M146 212v-74"/><path fill="none" stroke="#2457ff" stroke-linecap="round" stroke-linejoin="round" stroke-width="10" d="m110 174 36-38 36 38"/><path stroke="#2457ff" stroke-linecap="round" stroke-width="10" d="M104 224h84"/></g></svg>