<svg xmlns="http://www.w3.org/2000/svg" width="1440" height="1024"
viewBox="0 0 1440 1024" role="img" aria-label="FileKit local-safe inspected PDF state"
shape-rendering="geometricPrecision">
<rect width="1440" height="1024" fill="#FAFAF8"/>
<style>
  .inter { font-family: Inter, Arial, Helvetica, sans-serif; }
  .arabic { font-family: "Noto Sans Arabic", Arial, sans-serif; }
</style>
<rect x="0" y="0" width="1440" height="72" rx="0" fill="#FFFFFF" stroke="#E2E8F0" stroke-width="1"/>
    <g transform="translate(52 18) scale(0.19)">
      <path fill="#0F172A" d="M44 18 H120 L176 74 V162 C176 176.4 164.4 188 150 188 H44 C29.6 188 18 176.4 18 162 V44 C18 29.6 29.6 18 44 18 Z"/>
      <path fill="#FFFFFF" d="M46 32 H120 V58 C120 66.8 127.2 74 136 74 H162 V160 C162 167.7 155.7 174 148 174 H46 C38.3 174 32 167.7 32 160 V46 C32 38.3 38.3 32 46 32 Z"/>
      <path fill="#2563EB" d="M120 18 H123 L174.5 69.5 Q176 71 176 74 H136 C127.2 74 120 66.8 120 58 Z"/>
      <path d="M49 78 V52 H75" fill="none" stroke="#2563EB" stroke-width="9"/>
      <path d="M119 158 H149 V128" fill="none" stroke="#2563EB" stroke-width="9"/>
    </g><text x="96" y="48" class="inter" font-size="28" font-weight="700" fill="#0F172A" text-anchor="start" letter-spacing="0">File</text><text x="147.52" y="48" class="inter" font-size="28" font-weight="700" fill="#2563EB" text-anchor="start" letter-spacing="0">Kit</text><text x="250" y="45" class="inter" font-size="13" font-weight="600" fill="#0F172A" text-anchor="start" letter-spacing="0">All Tools</text><text x="330" y="45" class="inter" font-size="13" font-weight="700" fill="#2563EB" text-anchor="start" letter-spacing="0">Compress</text><text x="420" y="45" class="inter" font-size="13" font-weight="600" fill="#0F172A" text-anchor="start" letter-spacing="0">Convert</text><text x="500" y="45" class="inter" font-size="13" font-weight="600" fill="#0F172A" text-anchor="start" letter-spacing="0">Merge</text><text x="565" y="45" class="inter" font-size="13" font-weight="600" fill="#0F172A" text-anchor="start" letter-spacing="0">Image</text><text x="635" y="45" class="inter" font-size="13" font-weight="600" fill="#0F172A" text-anchor="start" letter-spacing="0">Organize</text><rect x="875" y="18" width="270" height="38" rx="9" fill="#FFFFFF" stroke="#E2E8F0" stroke-width="1"/><circle cx="898.72" cy="35.72" r="4.48" fill="none" stroke="#475569" stroke-width="1.6"/><line x1="902.08" y1="39.08" x2="906.72" y2="43.72" stroke="#475569" stroke-width="1.6" stroke-linecap="round"/><text x="918" y="43" class="inter" font-size="13" font-weight="400" fill="#64748B" text-anchor="start" letter-spacing="0">Search tools...</text><rect x="1111" y="24" width="24" height="26" rx="5" fill="#F8FAFC" stroke="#E2E8F0" stroke-width="1"/><text x="1123" y="42" class="inter" font-size="13" font-weight="600" fill="#475569" text-anchor="middle" letter-spacing="0">/</text><circle cx="1185.5" cy="36.5" r="7.14" fill="none" stroke="#475569" stroke-width="1.5"/><path d="M1185.5 29.36 C1182.44 32.59,1182.44 40.41,1185.5 43.64" fill="none" stroke="#475569" stroke-width="1.2"/><path d="M1185.5 29.36 C1188.56 32.59,1188.56 40.41,1185.5 43.64" fill="none" stroke="#475569" stroke-width="1.2"/><line x1="1178.7" y1="36.5" x2="1192.3" y2="36.5" stroke="#475569" stroke-width="1.2"/><text x="1201" y="43" class="inter" font-size="13" font-weight="600" fill="#0F172A" text-anchor="start" letter-spacing="0">English</text><path d="M1274 35 L1278.0 39.0 L1282 35" fill="none" stroke="#475569" stroke-width="1.8" stroke-linecap="round" stroke-linejoin="round"/><rect x="1302" y="18" width="102" height="38" rx="10" fill="#FFFFFF" stroke="#2563EB" stroke-width="1.5"/><text x="1353.0" y="42.0" class="inter" font-size="13" font-weight="700" fill="#2563EB" text-anchor="middle" letter-spacing="0">All tools</text><text x="120" y="100" class="inter" font-size="13" font-weight="400" fill="#64748B" text-anchor="start" letter-spacing="0">Home</text><text x="160" y="100" class="inter" font-size="13" font-weight="400" fill="#64748B" text-anchor="start" letter-spacing="0">›</text><text x="180" y="100" class="inter" font-size="13" font-weight="700" fill="#2563EB" text-anchor="start" letter-spacing="0">Compress PDF</text><text x="300" y="154" class="inter" font-size="38" font-weight="700" fill="#0F172A" text-anchor="start" letter-spacing="0">Compress PDF below 2 MB</text><text x="300" y="184" class="inter" font-size="15" font-weight="400" fill="#475569" text-anchor="start" letter-spacing="0">Make your PDF smaller while preserving the best achievable quality.</text><rect x="1020" y="130" width="205.60000000000002" height="36" rx="9" fill="#F0FDF4" stroke="#BBF7D0" stroke-width="1"/><rect x="1034.52" y="144.88" width="8.96" height="6.72" rx="1.12" fill="none" stroke="#16A34A" stroke-width="1.26"/><path d="M1036.62 144.88 V143.06 C1036.62 140.12,1041.38 140.12,1041.38 143.06 V144.88" fill="none" stroke="#16A34A" stroke-width="1.26" stroke-linecap="round"/><text x="1054" y="153" class="inter" font-size="13" font-weight="700" fill="#16A34A" text-anchor="start" letter-spacing="0">Processed on this device</text><rect x="300" y="225" width="840" height="470" rx="24" fill="#FFFFFF" stroke="#E2E8F0" stroke-width="1.2"/><rect x="335" y="260" width="770" height="90" rx="14" fill="#F8FAFC" stroke="#E2E8F0" stroke-width="1"/><path d="M363.1 285.6 H381.1 L391.9 296.4 V322.5 H363.1 Z" fill="#FEF2F2" stroke="#DC2626" stroke-width="2.6999999999999997" stroke-linejoin="round"/><path d="M381.1 285.6 V296.4 H391.9" fill="none" stroke="#DC2626" stroke-width="2.6999999999999997" stroke-linejoin="round"/><text x="415" y="294" class="inter" font-size="15" font-weight="700" fill="#0F172A" text-anchor="start" letter-spacing="0">document_for_visa_application.pdf</text><text x="415" y="322" class="inter" font-size="12" font-weight="400" fill="#64748B" text-anchor="start" letter-spacing="0">Original size: 4.8 MB  •  24 pages</text><rect x="990" y="281" width="82" height="42" rx="10" fill="#FFFFFF" stroke="#475569" stroke-width="1.5"/><text x="1031.0" y="307.0" class="inter" font-size="13" font-weight="700" fill="#475569" text-anchor="middle" letter-spacing="0">Remove</text><text x="335" y="392" class="inter" font-size="13" font-weight="700" fill="#0F172A" text-anchor="start" letter-spacing="0">Target size</text><rect x="470" y="365" width="602" height="54" rx="10" fill="#FFFFFF" stroke="#E2E8F0" stroke-width="1"/><text x="490" y="399" class="inter" font-size="14" font-weight="600" fill="#0F172A" text-anchor="start" letter-spacing="0">Under 2 MB (Recommended)</text><path d="M1040 386 L1044.5 390.5 L1049 386" fill="none" stroke="#475569" stroke-width="1.8" stroke-linecap="round" stroke-linejoin="round"/><rect x="335" y="440" width="770" height="62" rx="10" fill="#EFF6FF" stroke="#BFDBFE" stroke-width="1"/><circle cx="364.0" cy="469.0" r="7.74" fill="none" stroke="#2563EB" stroke-width="1.44"/><circle cx="364.0" cy="465.4" r="0.9" fill="#2563EB"/><line x1="364.0" y1="468.1" x2="364.0" y2="472.96" stroke="#2563EB" stroke-width="1.6199999999999999" stroke-linecap="round"/><text x="388" y="469" class="inter" font-size="13" font-weight="500" fill="#0F172A" text-anchor="start" letter-spacing="0">We will reduce file size while maintaining the best possible quality.</text><rect x="335" y="530" width="770" height="54" rx="10" fill="#2563EB"/><text x="720.0" y="562.0" class="inter" font-size="16" font-weight="700" fill="#FFFFFF" text-anchor="middle" letter-spacing="0">Compress PDF</text><rect x="335" y="608" width="770" height="56" rx="11" fill="#F0FDF4" stroke="#BBF7D0" stroke-width="1"/><rect x="358.96" y="634.24" width="14.08" height="10.559999999999999" rx="1.76" fill="none" stroke="#16A34A" stroke-width="1.98"/><path d="M362.26 634.24 V631.38 C362.26 626.76,369.74 626.76,369.74 631.38 V634.24" fill="none" stroke="#16A34A" stroke-width="1.98" stroke-linecap="round"/><text x="390" y="638" class="inter" font-size="13" font-weight="700" fill="#16A34A" text-anchor="start" letter-spacing="0">Local processing is ready.</text><text x="572" y="638" class="inter" font-size="12" font-weight="400" fill="#64748B" text-anchor="start" letter-spacing="0">Your file has not left this device.</text><line x1="300" y1="770" x2="1140" y2="770" stroke="#E2E8F0" stroke-width="1"/><path d="M334.0 801.4 L344.64 805.04 V814.0 C344.64 820.72,340.16 825.2,334.0 827.44 C327.84 825.2,323.36 820.72,323.36 814.0 V805.04 Z" fill="none" stroke="#0F172A" stroke-width="1.9600000000000002" stroke-linejoin="round"/><text x="362.0" y="816" class="inter" font-size="14" font-weight="700" fill="#0F172A" text-anchor="start" letter-spacing="0">100% Private</text><text x="362.0" y="839" class="inter" font-size="12" font-weight="400" fill="#64748B" text-anchor="start" letter-spacing="0">Processed only in your browser</text><line x1="580.0" y1="788" x2="580.0" y2="870" stroke="#E2E8F0" stroke-width="1"/><rect x="605.04" y="812.76" width="17.92" height="13.44" rx="2.24" fill="none" stroke="#0F172A" stroke-width="2.52"/><path d="M609.24 812.76 V809.12 C609.24 803.24,618.76 803.24,618.76 809.12 V812.76" fill="none" stroke="#0F172A" stroke-width="2.52" stroke-linecap="round"/><text x="642.0" y="816" class="inter" font-size="14" font-weight="700" fill="#0F172A" text-anchor="start" letter-spacing="0">Secure &amp; Safe</text><text x="642.0" y="839" class="inter" font-size="12" font-weight="400" fill="#64748B" text-anchor="start" letter-spacing="0">Your files are never uploaded</text><line x1="860.0" y1="788" x2="860.0" y2="870" stroke="#E2E8F0" stroke-width="1"/><path d="M887.0 809.4 H901.0 M890.64 809.4 V806.04 H897.36 V809.4 M888.96 809.4 L890.08 824.52 H897.92 L899.04 809.4" fill="none" stroke="#0F172A" stroke-width="1.9600000000000002" stroke-linecap="round" stroke-linejoin="round"/><text x="922.0" y="816" class="inter" font-size="14" font-weight="700" fill="#0F172A" text-anchor="start" letter-spacing="0">Auto Delete</text><text x="922.0" y="839" class="inter" font-size="12" font-weight="400" fill="#64748B" text-anchor="start" letter-spacing="0">Temporary files expire automatically</text></svg>